<svg width="138" height="137" viewBox="0 0 138 137" fill="none" xmlns="http://www.w3.org/2000/svg">
<rect x="0.5" width="137" height="137" rx="12" fill="#5700D1"/>
<path d="M34 55.5H104M34 55.5V93.6333C34 98.4867 34 100.913 34.9537 102.768C35.7926 104.399 37.1312 105.724 38.7775 106.555C40.6456 107.5 43.0956 107.5 47.9869 107.5H90.0131C94.9044 107.5 97.35 107.5 99.2181 106.555C100.867 105.723 102.206 104.397 103.046 102.768C104 100.913 104 98.4953 104 93.6507V55.5M34 55.5V52.0333C34 47.18 34 44.7533 34.9537 42.8987C35.7937 41.265 37.1281 39.9433 38.7775 39.1113C40.65 38.1667 43.1 38.1667 48 38.1667H51.5M104 55.5V52.0203C104 47.1757 104 44.749 103.046 42.8987C102.206 41.2675 100.866 39.9417 99.2181 39.1113C97.35 38.1667 94.9 38.1667 90 38.1667H86.5M51.5 38.1667H86.5M51.5 38.1667V29.5M86.5 38.1667V29.5" stroke="white" stroke-width="8" stroke-linecap="round" stroke-linejoin="round"/>
</svg>
