<svg width="138" height="137" viewBox="0 0 138 137" fill="none" xmlns="http://www.w3.org/2000/svg">
<rect x="0.5" width="137" height="137" rx="12" fill="#5700D1"/>
<path d="M86.6 42.1C86.6 33.8016 86.6 29.6568 84.0216 27.0784C81.4432 24.5 77.2984 24.5 69 24.5C60.7016 24.5 56.5568 24.5 53.9784 27.0784C51.4 29.6568 51.4 33.8016 51.4 42.1M25 77.3C25 60.7076 25 52.4092 30.1568 47.2568C35.3092 42.1 43.6076 42.1 60.2 42.1H77.8C94.3924 42.1 102.691 42.1 107.843 47.2568C113 52.4092 113 60.7076 113 77.3C113 93.8924 113 102.191 107.843 107.343C102.691 112.5 94.3924 112.5 77.8 112.5H60.2C43.6076 112.5 35.3092 112.5 30.1568 107.343C25 102.191 25 93.8924 25 77.3Z" stroke="white" stroke-width="8"/>
<path d="M69 91.9651C73.862 91.9651 77.8 88.6827 77.8 84.6347C77.8 80.5867 73.862 77.2999 69 77.2999C64.138 77.2999 60.2 74.0176 60.2 69.9652C60.2 65.9172 64.138 62.6348 69 62.6348M69 91.9651C64.138 91.9651 60.2 88.6827 60.2 84.6347M69 91.9651V94.8999M69 62.6348V59.7M69 62.6348C73.862 62.6348 77.8 65.9172 77.8 69.9652" stroke="white" stroke-width="8" stroke-linecap="round"/>
</svg>
