<svg width="138" height="137" viewBox="0 0 138 137" fill="none" xmlns="http://www.w3.org/2000/svg">
<rect x="0.5" width="137" height="137" rx="12" fill="#5700D1"/>
<path d="M66.2571 102.158H39.0175C36.8912 102.158 34.8519 101.313 33.3483 99.8096C31.8447 98.3061 31 96.2668 31 94.1404V46.0351C31 43.9087 31.8447 41.8694 33.3483 40.3659C34.8519 38.8623 36.8912 38.0176 39.0175 38.0176H87.1228C89.2492 38.0176 91.2885 38.8623 92.7921 40.3659C94.2956 41.8694 95.1404 43.9087 95.1404 46.0351V62.0702" stroke="white" stroke-width="8" stroke-linecap="round" stroke-linejoin="round"/>
<path d="M79.1053 30V46.0351M47.0351 30V46.0351M31 62.0702H95.1404M75.0965 90.1316C75.0965 94.3844 76.7859 98.4629 79.7931 101.47C82.8002 104.477 86.8788 106.167 91.1316 106.167C95.3844 106.167 99.4629 104.477 102.47 101.47C105.477 98.4629 107.167 94.3844 107.167 90.1316C107.167 85.8788 105.477 81.8002 102.47 78.7931C99.4629 75.7859 95.3844 74.0965 91.1316 74.0965C86.8788 74.0965 82.8002 75.7859 79.7931 78.7931C76.7859 81.8002 75.0965 85.8788 75.0965 90.1316Z" stroke="white" stroke-width="8" stroke-linecap="round" stroke-linejoin="round"/>
<path d="M91.1316 84.1023V90.1315L95.1404 94.1403" stroke="white" stroke-width="8" stroke-linecap="round" stroke-linejoin="round"/>
</svg>
