<svg width="138" height="137" viewBox="0 0 138 137" fill="none" xmlns="http://www.w3.org/2000/svg">
<path d="M77.684 61.4279C77.272 61.4251 76.8757 61.5847 76.5815 61.8718C76.2873 62.1588 76.1191 62.5501 76.1136 62.9602V74.4109C76.1191 74.8219 76.288 75.2139 76.5833 75.5011C76.8787 75.7884 77.2763 75.9473 77.6892 75.9432H112.337C112.75 75.9473 113.147 75.7884 113.443 75.5011C113.738 75.2139 113.907 74.8219 113.912 74.4109V62.9602C113.907 62.5492 113.738 62.1572 113.443 61.8699C113.147 61.5827 112.75 61.4238 112.337 61.4279H77.684ZM98.9312 25.0052C103.726 25.2329 107.173 26.1751 109.357 28.1733C111.515 30.1507 112.623 33.0134 112.841 36.8027V47.6581C112.83 48.5826 112.451 49.4649 111.787 50.1113C111.123 50.7577 110.229 51.1154 109.3 51.1057C108.84 51.1112 108.383 51.0264 107.956 50.8561C107.528 50.6857 107.139 50.4333 106.809 50.1132C106.48 49.793 106.217 49.4114 106.036 48.9902C105.855 48.5689 105.759 48.1163 105.754 47.6581L105.759 36.9994C105.644 35.0323 105.171 33.8106 104.495 33.1894C103.84 32.5889 101.843 32.0506 98.7596 31.8953H30.7644C27.972 31.9988 26.1572 32.5268 25.2784 33.2774C24.6024 33.852 24.0928 35.4361 24.0876 38.1745L24.072 99.1034C24.332 101.764 24.9196 103.54 25.6736 104.425C26.2456 105.098 28.0188 105.771 30.6292 106.102H98.8324C102.025 106.164 103.908 105.688 104.542 105.051C105.244 104.342 105.754 102.479 105.754 99.4295V88.8433C105.754 86.9435 107.34 85.3957 109.3 85.3957C111.255 85.3957 112.841 86.9435 112.841 88.8433V99.4295C112.841 104.088 111.884 107.572 109.643 109.835C107.334 112.164 103.663 113.096 98.7596 112.992L30.208 112.977C25.5436 112.438 22.2 111.165 20.2084 108.82C18.404 106.698 17.4004 103.669 17 99.4347V38.1693C17.0104 33.6346 18.1024 30.2232 20.6088 28.0904C22.9072 26.1233 26.2248 25.1657 30.6292 25H98.9312V25.0052ZM112.337 54.5326C117.121 54.5326 121 58.3064 121 62.9602V74.4109C121 79.0647 117.121 82.8384 112.337 82.8384H77.6892C72.9052 82.8384 69.026 79.0595 69.026 74.4109V62.9602C69.026 58.3064 72.9052 54.5326 77.6892 54.5326H112.337ZM86.3524 64.5753C83.9604 64.5753 82.0208 66.4389 82.0208 68.7321C82.0208 71.0306 83.9604 72.889 86.3524 72.889C88.7444 72.889 90.684 71.0254 90.684 68.7321C90.684 66.4337 88.7444 64.5701 86.3524 64.5701V64.5753Z" fill="white"/>
</svg>
