<svg xmlns="http://www.w3.org/2000/svg" width="28" height="28" viewBox="0 0 28 28" fill="none">
  <path d="M19.8233 13.4381C21.0308 13.4379 22.2053 13.0441 23.1688 12.3164C24.1323 11.5887 24.8324 10.5667 25.1628 9.40531C25.4933 8.24395 25.4362 7.00652 25.0001 5.88054C24.5641 4.75456 23.7729 3.80142 22.7464 3.16555C21.7199 2.52968 20.5142 2.24575 19.3118 2.35678C18.1095 2.46782 16.9761 2.96777 16.0834 3.78087C15.1908 4.59396 14.5875 5.67589 14.365 6.86268C14.1426 8.04947 14.313 9.27644 14.8506 10.3576C14.9522 10.5539 14.9787 10.7806 14.925 10.9951L14.5941 12.231C14.5613 12.3534 14.5613 12.4822 14.5941 12.6046C14.6269 12.727 14.6913 12.8385 14.7809 12.9281C14.8705 13.0177 14.9821 13.0821 15.1044 13.1149C15.2268 13.1477 15.3556 13.1477 15.478 13.115L16.714 12.784C16.9284 12.7304 17.1551 12.7568 17.3514 12.8585C18.1193 13.2408 18.9655 13.4392 19.8233 13.4381Z" stroke="#5700D1" stroke-width="1.5"/>
  <path d="M17.1095 17.377L17.7136 17.9511L17.1095 17.3781V17.377ZM20.9362 23.7146L20.331 23.1404L20.9351 23.7146H20.9362ZM19.4637 24.503L19.5459 25.3303L19.4637 24.5019V24.503ZM17.2083 18.4831L17.7136 17.9511L16.5053 16.8029L16.0001 17.337L17.2083 18.4831ZM19.3782 17.7257L21.4992 18.9484L22.3298 17.5036L20.2088 16.2821L19.3782 17.7257ZM21.909 21.4791L20.3321 23.1393L21.5392 24.2876L23.1161 22.6274L21.909 21.4791ZM19.3826 23.6724C17.7891 23.8289 13.6303 23.6957 9.11728 18.945L7.91018 20.091C12.8285 25.2692 17.5203 25.5313 19.5459 25.3303L19.3826 23.6724ZM9.11728 18.945C4.81303 14.4131 4.09122 10.5897 4.00127 8.91288L2.33776 9.00283C2.44881 11.0572 3.31943 15.2582 7.91018 20.091L9.11728 18.945ZM10.6453 11.5736L10.9629 11.2382L9.75581 10.0911L9.4371 10.4265L10.6453 11.5736ZM11.2139 7.06281L9.81355 5.08392L8.45321 6.04561L9.85242 8.0256L11.2139 7.06392V7.06281ZM5.07289 4.65528L3.33164 6.49202L4.53985 7.63915L6.28332 5.80352L5.07511 4.65639L5.07289 4.65528ZM10.0412 10.9995C9.84134 10.8069 9.63959 10.6162 9.43599 10.4276L9.43377 10.4298L9.43044 10.4331C9.41094 10.4537 9.39241 10.4752 9.37491 10.4975C9.26606 10.6416 9.17992 10.8015 9.1195 10.9717C9.01067 11.2771 8.95293 11.6813 9.02622 12.1855C9.17058 13.176 9.82022 14.5075 11.5159 16.2943L12.7241 15.146C11.1384 13.477 10.7475 12.4498 10.6742 11.9434C10.6386 11.6991 10.6742 11.5714 10.6886 11.5303L10.6975 11.5092C10.6859 11.5281 10.6721 11.5456 10.6564 11.5614L10.6509 11.5669C10.6498 11.5681 10.6487 11.5692 10.6475 11.5703L10.6464 11.5714C10.6464 11.5714 10.6442 11.5736 10.0412 10.9995ZM11.5159 16.2943C13.2072 18.0755 14.4843 18.774 15.4582 18.9328C15.959 19.0139 16.3643 18.9484 16.6708 18.8273C16.8406 18.7606 16.9985 18.6669 17.1383 18.5497C17.152 18.5375 17.1653 18.5249 17.1783 18.5119L17.1938 18.4964C17.1976 18.4928 17.2013 18.4891 17.205 18.4853C17.205 18.4831 17.2083 18.4831 16.6042 17.9089C16.0001 17.3359 16.0012 17.3348 16.0012 17.3337L16.0034 17.3326L16.0056 17.3293C16.0075 17.3274 16.0094 17.3256 16.0112 17.3237L16.0223 17.3126C16.0353 17.3 16.049 17.2882 16.0634 17.2771C16.0745 17.2704 16.0734 17.2726 16.0589 17.2782C16.0367 17.2871 15.9368 17.3226 15.7258 17.2882C15.2794 17.2149 14.3155 16.8218 12.7241 15.146L11.5159 16.2943ZM9.81355 5.08392C8.68752 3.49149 6.43545 3.22164 5.074 4.65639L6.27998 5.80352C6.86077 5.19275 7.88464 5.2405 8.45321 6.04561L9.81355 5.08392ZM4.00127 8.91288C3.97683 8.46869 4.17117 8.0256 4.53985 7.63915L3.33164 6.49202C2.73642 7.11834 2.28334 7.98785 2.33776 9.00283L4.00127 8.91288ZM20.331 23.1404C20.0211 23.4669 19.698 23.6413 19.3826 23.6724L19.5459 25.3303C20.3754 25.2493 21.0472 24.8062 21.5392 24.2876L20.331 23.1415V23.1404ZM10.9629 11.2394C12.039 10.1067 12.1134 8.33765 11.2139 7.06392L9.85353 8.0256C10.3222 8.68856 10.25 9.5714 9.75581 10.0911L10.9629 11.2394ZM21.4992 18.9484C22.4109 19.4736 22.5897 20.764 21.909 21.4803L23.1161 22.6274C24.5653 21.1016 24.1433 18.5486 22.331 17.5047L21.4992 18.9484ZM17.7136 17.9511C18.1411 17.5003 18.8085 17.3992 19.3782 17.7268L20.2088 16.2832C18.9884 15.5814 17.477 15.7835 16.5053 16.8051L17.7136 17.9511Z" fill="#5700D1"/>
</svg>