<svg xmlns="http://www.w3.org/2000/svg" width="28" height="28" viewBox="0 0 28 28" fill="none">
  <path d="M3.5 21.875C3.5 20.4826 4.05312 19.1473 5.03769 18.1627C6.02226 17.1781 7.35761 16.625 8.75 16.625H19.25C20.6424 16.625 21.9777 17.1781 22.9623 18.1627C23.9469 19.1473 24.5 20.4826 24.5 21.875C24.5 22.5712 24.2234 23.2389 23.7312 23.7312C23.2389 24.2234 22.5712 24.5 21.875 24.5H6.125C5.42881 24.5 4.76113 24.2234 4.26884 23.7312C3.77656 23.2389 3.5 22.5712 3.5 21.875Z" stroke="#5700D1" stroke-width="1.5" stroke-linejoin="round"/>
  <path d="M14 11.375C16.1746 11.375 17.9375 9.61212 17.9375 7.4375C17.9375 5.26288 16.1746 3.5 14 3.5C11.8254 3.5 10.0625 5.26288 10.0625 7.4375C10.0625 9.61212 11.8254 11.375 14 11.375Z" stroke="#5700D1" stroke-width="1.5"/>
</svg>