<svg width="138" height="78" viewBox="0 0 138 78" fill="none" xmlns="http://www.w3.org/2000/svg">
<path fill-rule="evenodd" clip-rule="evenodd" d="M93.7868 12C93.7868 5.37258 88.4142 0 81.7868 0H12C5.37259 0 0 5.37259 0 12L1.52588e-05 39.6977C1.52588e-05 46.3251 5.3726 51.6977 12 51.6977H31.3856C38.0131 51.6977 43.3856 57.0703 43.3856 63.6977V66C43.3856 72.6274 48.7582 78 55.3856 78H125.172C131.8 78 137.172 72.6274 137.172 66V38.3023C137.172 31.6749 131.8 26.3023 125.172 26.3023H105.787C99.1594 26.3023 93.7868 20.9297 93.7868 14.3023V12Z" fill="white"/>
<path d="M60.3484 36.472V31.144H73.3564V55H67.1164V36.472H60.3484Z" fill="#5700D1"/>
</svg>
