<svg width="138" height="78" viewBox="0 0 138 78" fill="none" xmlns="http://www.w3.org/2000/svg">
<path fill-rule="evenodd" clip-rule="evenodd" d="M93.7868 12C93.7868 5.37258 88.4142 0 81.7868 0H12C5.37259 0 0 5.37259 0 12L1.52588e-05 39.6977C1.52588e-05 46.3251 5.3726 51.6977 12 51.6977H31.3856C38.0131 51.6977 43.3856 57.0703 43.3856 63.6977V66C43.3856 72.6274 48.7582 78 55.3856 78H125.172C131.8 78 137.172 72.6274 137.172 66V38.3023C137.172 31.6749 131.8 26.3023 125.172 26.3023H105.787C99.1594 26.3023 93.7868 20.9297 93.7868 14.3023V12Z" fill="white"/>
<path d="M69.205 46.168V45.928C71.093 45.992 72.821 46.152 74.389 46.408C75.989 46.632 77.365 47.032 78.517 47.608C79.669 48.152 80.565 48.92 81.205 49.912C81.845 50.904 82.165 52.168 82.165 53.704C82.165 55.496 81.589 57.08 80.437 58.456C79.317 59.832 77.717 60.904 75.637 61.672C73.557 62.472 71.109 62.872 68.293 62.872C65.541 62.872 63.125 62.44 61.045 61.576C58.997 60.744 57.429 59.576 56.341 58.072C55.253 56.6 54.757 54.888 54.853 52.936H60.901C60.933 53.864 61.237 54.664 61.813 55.336C62.421 56.04 63.269 56.584 64.357 56.968C65.477 57.352 66.789 57.544 68.293 57.544C70.629 57.544 72.421 57.144 73.669 56.344C74.917 55.544 75.541 54.36 75.541 52.792C75.541 51.288 74.821 50.232 73.381 49.624C71.941 48.984 69.909 48.664 67.285 48.664H63.205V43.864H67.285C69.109 43.864 70.581 43.752 71.701 43.528C72.853 43.272 73.685 42.872 74.197 42.328C74.741 41.752 75.013 41 75.013 40.072C75.013 38.76 74.485 37.736 73.429 37C72.373 36.232 70.661 35.848 68.293 35.848C66.053 35.848 64.325 36.248 63.109 37.048C61.925 37.848 61.301 38.904 61.237 40.216H55.189C55.093 38.712 55.365 37.368 56.005 36.184C56.677 35 57.621 33.992 58.837 33.16C60.085 32.296 61.509 31.64 63.109 31.192C64.741 30.744 66.469 30.52 68.293 30.52C71.045 30.52 73.413 30.872 75.397 31.576C77.381 32.28 78.901 33.272 79.957 34.552C81.013 35.832 81.541 37.32 81.541 39.016C81.541 40.424 81.237 41.592 80.629 42.52C80.021 43.416 79.157 44.136 78.037 44.68C76.917 45.192 75.605 45.56 74.101 45.784C72.629 46.008 70.997 46.136 69.205 46.168Z" fill="#5700D1"/>
</svg>
