<svg width="138" height="78" viewBox="0 0 138 78" fill="none" xmlns="http://www.w3.org/2000/svg">
<mask id="path-1-inside-1_1_120" fill="white">
<path fill-rule="evenodd" clip-rule="evenodd" d="M93.7868 12C93.7868 5.37258 88.4142 0 81.7868 0H12C5.37259 0 0 5.37259 0 12L1.52588e-05 39.6977C1.52588e-05 46.3251 5.3726 51.6977 12 51.6977H31.3856C38.0131 51.6977 43.3856 57.0703 43.3856 63.6977V66C43.3856 72.6274 48.7582 78 55.3856 78H125.172C131.8 78 137.172 72.6274 137.172 66V38.3023C137.172 31.6749 131.8 26.3023 125.172 26.3023H105.787C99.1594 26.3023 93.7868 20.9297 93.7868 14.3023V12Z"/>
</mask>
<path d="M0 12L4 12L0 12ZM12 -4H81.7868V4H12V-4ZM-3.99998 39.6977L-4 12L4 12L4.00002 39.6977H-3.99998ZM31.3856 55.6977H12V47.6977H31.3856V55.6977ZM39.3856 66V63.6977H47.3856V66H39.3856ZM125.172 82H55.3856V74H125.172V82ZM141.172 38.3023V66H133.172V38.3023H141.172ZM105.787 22.3023H125.172V30.3023H105.787V22.3023ZM97.7868 12V14.3023H89.7868V12H97.7868ZM105.787 30.3023C96.9502 30.3023 89.7868 23.1389 89.7868 14.3023H97.7868C97.7868 18.7206 101.369 22.3023 105.787 22.3023V30.3023ZM133.172 38.3023C133.172 33.884 129.591 30.3023 125.172 30.3023V22.3023C134.009 22.3023 141.172 29.4658 141.172 38.3023H133.172ZM125.172 74C129.591 74 133.172 70.4183 133.172 66H141.172C141.172 74.8365 134.009 82 125.172 82V74ZM47.3856 66C47.3856 70.4183 50.9674 74 55.3856 74V82C46.5491 82 39.3856 74.8366 39.3856 66H47.3856ZM31.3856 47.6977C40.2222 47.6977 47.3856 54.8611 47.3856 63.6977H39.3856C39.3856 59.2794 35.8039 55.6977 31.3856 55.6977V47.6977ZM4.00002 39.6977C4.00002 44.1159 7.58174 47.6977 12 47.6977V55.6977C3.16345 55.6977 -3.99998 48.5342 -3.99998 39.6977H4.00002ZM81.7868 -4C90.6234 -4 97.7868 3.16344 97.7868 12H89.7868C89.7868 7.58172 86.2051 4 81.7868 4V-4ZM12 4C7.58173 4 4 7.58173 4 12L-4 12C-4 3.16346 3.16344 -4 12 -4V4Z" fill="white" mask="url(#path-1-inside-1_1_120)"/>
<path d="M71.1674 47.752L63.3914 51.4L63.1514 50.2H81.0554V55H55.4714V50.2C58.3514 48.888 60.9434 47.768 63.2474 46.84C65.5514 45.912 67.5034 45.08 69.1034 44.344C70.7034 43.576 71.9194 42.808 72.7514 42.04C73.6154 41.24 74.0474 40.36 74.0474 39.4C74.0474 38.632 73.8234 37.976 73.3754 37.432C72.9274 36.856 72.2234 36.408 71.2634 36.088C70.3034 35.768 69.0554 35.608 67.5194 35.608C65.5034 35.608 63.8714 36.008 62.6234 36.808C61.4074 37.576 60.7674 38.632 60.7034 39.976H54.6554C54.5594 38.12 55.0074 36.488 55.9994 35.08C57.0234 33.672 58.5114 32.568 60.4634 31.768C62.4154 30.968 64.7194 30.568 67.3754 30.568C69.3274 30.568 71.1034 30.76 72.7034 31.144C74.3034 31.496 75.6794 32.024 76.8314 32.728C78.0154 33.432 78.9114 34.28 79.5194 35.272C80.1594 36.264 80.4794 37.384 80.4794 38.632C80.4794 39.592 80.3034 40.472 79.9514 41.272C79.5994 42.04 79.0394 42.776 78.2714 43.48C77.5354 44.184 76.5754 44.888 75.3914 45.592C74.2074 46.264 72.7994 46.984 71.1674 47.752Z" fill="white"/>
</svg>
